<?xml version="1.0" encoding="UTF-8"?>
<svg id="Layer_1" data-name="Layer 1" xmlns="http://www.w3.org/2000/svg" viewBox="0 0 131.23 25.85">
  <defs>
    <style>
      .cls-1 {
        fill: #005daa;
      }

      .cls-1, .cls-2 {
        fill-rule: evenodd;
      }

      .cls-3, .cls-2 {
        fill: #fff;
      }

      .cls-4 {
        fill: #ed1c25;
      }

      .cls-5 {
        fill: #ad1015;
      }

      .cls-6 {
        fill: none;
        stroke: #fff;
        stroke-miterlimit: 2.61;
        stroke-width: .14px;
      }
    </style>
  </defs>
  <g>
    <g>
      <path class="cls-3" d="M81.69,2.03l2.88,5.06,2.51-1.07-1.22,8.03.03-.03,3.82-4.48.92,2.21,4.76-1.55-1.45,5.08,2.23.87-5.21,4.37,1.53,3.2-10.81-2.32-10.8,2.32,1.52-3.2-5.19-4.37,2.23-.87-1.47-5.08,4.78,1.55.91-2.21,3.81,4.45.02.02.05.05-1.24-8.03,2.52,1.07,2.87-5.06M95.4,10.19h0M81.69,1.75h0c-.1,0-.2.06-.25.14l-2.74,4.84-2.29-.97s-.07-.02-.11-.02c-.06,0-.12.02-.17.06-.08.06-.12.17-.11.27l1.09,7.05-3.23-3.77c-.05-.06-.13-.1-.22-.1-.02,0-.03,0-.05,0-.1.02-.18.08-.22.17l-.81,1.96-4.53-1.47s-.06-.01-.09-.01c-.07,0-.14.03-.2.08-.08.07-.1.18-.08.28l1.39,4.83-1.98.78c-.09.04-.16.12-.18.22-.02.1.02.2.1.26l5.02,4.23-1.42,3c-.05.1-.03.21.03.3.05.07.14.11.22.11.02,0,.04,0,.06,0l10.74-2.31,10.75,2.31s.04,0,.06,0c.09,0,.17-.04.22-.11.07-.09.08-.2.03-.3l-1.44-3,5.04-4.23c.08-.06.11-.16.1-.26-.02-.1-.08-.18-.18-.22l-1.98-.78,1.38-4.81s.02-.06.02-.09c0-.16-.13-.28-.28-.28,0,0,0,0,0,0,0,0-.01,0-.02,0-.03,0-.05,0-.08.02l-4.51,1.47-.82-1.97c-.04-.09-.12-.16-.22-.17-.01,0-.03,0-.04,0-.08,0-.16.04-.22.1l-3.21,3.76,1.07-7.05c.02-.1-.03-.2-.11-.27-.05-.04-.11-.06-.17-.06-.04,0-.08,0-.11.02l-2.27.97-2.76-4.84c-.05-.09-.15-.14-.25-.14h0Z"/>
      <polygon class="cls-5" points="70.89 23.71 72.41 20.51 67.22 16.14 81.69 21.38 70.89 23.71"/>
      <polygon class="cls-4" points="67.22 16.14 69.44 15.27 67.98 10.19 72.76 11.74 73.66 9.53 77.47 13.98 77.49 14 81.69 21.38 67.22 16.14"/>
      <polygon class="cls-5" points="81.69 2.03 81.69 21.38 77.49 14 77.54 14.05 76.3 6.02 78.82 7.09 81.69 2.03"/>
      <polygon class="cls-4" points="87.08 6.02 85.86 14.05 81.69 21.38 81.69 2.03 84.57 7.09 87.08 6.02"/>
      <polygon class="cls-5" points="96.18 16.14 81.69 21.38 85.86 14.05 85.89 14.02 89.72 9.53 90.64 11.74 95.4 10.19 93.95 15.27 96.18 16.14"/>
      <polygon class="cls-4" points="90.97 20.51 92.5 23.71 81.69 21.38 96.18 16.14 90.97 20.51"/>
    </g>
    <g>
      <path class="cls-3" d="M100.82,6.58c.31-.05.77-.09,1.43-.09.62,0,1.06.11,1.36.34.29.22.49.6.49,1.04s-.15.82-.42,1.06c-.35.31-.86.45-1.44.45-.11,0-.21,0-.28-.01v1.47h-1.15v-4.26ZM101.97,8.49c.06,0,.14.01.26.01.45,0,.74-.23.74-.6,0-.32-.22-.54-.65-.54-.17,0-.29.01-.35.03v1.1Z"/>
      <path class="cls-3" d="M104.61,6.58c.33-.05.82-.09,1.4-.09.66,0,1.13.09,1.46.33.28.21.43.52.43.94,0,.54-.4.92-.74,1.04v.03c.29.12.44.4.55.77.13.44.28,1.07.36,1.24h-1.18c-.06-.13-.17-.46-.3-.99-.12-.52-.28-.63-.63-.63h-.19v1.62h-1.15v-4.26ZM105.76,8.4h.3c.44,0,.69-.22.69-.54s-.21-.51-.6-.51c-.22,0-.33.01-.39.03v1.02Z"/>
      <path class="cls-3" d="M112.49,8.64c0,1.39-.83,2.27-2.16,2.27s-2.08-1.01-2.08-2.2.83-2.25,2.15-2.25c1.39,0,2.09,1.03,2.09,2.18ZM109.47,8.69c0,.81.35,1.31.91,1.31s.88-.54.88-1.32-.33-1.31-.89-1.31-.9.53-.9,1.32Z"/>
      <path class="cls-3" d="M114.12,6.53v2.45c0,.65.22,1.02.68,1.02s.69-.34.69-1.02v-2.45h1.16v2.38c0,1.33-.67,2-1.88,2s-1.81-.65-1.81-2.04v-2.35h1.16Z"/>
      <path class="cls-3" d="M117.36,6.58c.37-.06.86-.09,1.38-.09.83,0,1.35.13,1.77.43.47.33.78.86.78,1.66,0,.88-.33,1.45-.76,1.77-.47.37-1.18.53-2.02.53-.56,0-.93-.03-1.15-.07v-4.23ZM118.52,9.98c.06.01.17.01.24.01.75.01,1.3-.4,1.3-1.38,0-.84-.5-1.24-1.19-1.24-.19,0-.29.01-.35.03v2.57Z"/>
      <path class="cls-3" d="M121.82,6.53h1.16v3.35h1.66v.97h-2.82v-4.32Z"/>
      <path class="cls-3" d="M125.35,10.84v-1.74l-1.36-2.57h1.33l.37.97c.12.3.2.52.29.79h.01c.08-.26.17-.5.28-.79l.36-.97h1.3l-1.42,2.53v1.79h-1.15Z"/>
      <path class="cls-3" d="M104.06,16.76c-.17.08-.57.17-1.09.17-1.61,0-2.32-1.01-2.32-2.15,0-1.52,1.11-2.3,2.4-2.3.5,0,.9.1,1.08.19l-.22.91c-.19-.08-.45-.15-.8-.15-.67,0-1.24.39-1.24,1.27,0,.79.47,1.27,1.26,1.27.28,0,.6-.06.77-.13l.16.91Z"/>
      <path class="cls-3" d="M105.78,15.87l-.24,1h-1.2l1.26-4.32h1.54l1.29,4.32h-1.25l-.28-1h-1.11ZM106.73,15.01l-.2-.77c-.06-.24-.15-.6-.21-.85h-.01c-.06.26-.13.61-.19.86l-.19.77h.8Z"/>
      <path class="cls-3" d="M108.81,16.87v-4.32h1.36l.69,1.33c.24.43.49,1.01.68,1.51h.02c-.06-.57-.09-1.17-.09-1.82v-1.02h1.06v4.32h-1.22l-.73-1.43c-.24-.46-.53-1.04-.73-1.56h-.02c.03.58.04,1.24.04,1.93v1.06h-1.06Z"/>
      <path class="cls-3" d="M114.33,15.87l-.24,1h-1.2l1.26-4.32h1.54l1.29,4.32h-1.25l-.28-1h-1.11ZM115.29,15.01l-.2-.77c-.06-.24-.15-.6-.21-.85h-.01c-.06.26-.13.61-.19.86l-.19.77h.8Z"/>
      <path class="cls-3" d="M117.21,12.61c.37-.06.86-.09,1.38-.09.83,0,1.35.13,1.77.43.47.33.78.86.78,1.66,0,.88-.33,1.45-.76,1.77-.47.37-1.18.53-2.02.53-.56,0-.93-.03-1.15-.07v-4.23ZM118.37,16c.06.01.17.01.24.01.75.01,1.3-.4,1.3-1.38,0-.84-.5-1.24-1.19-1.24-.19,0-.29.01-.35.03v2.57Z"/>
      <path class="cls-3" d="M122.68,12.55v4.32h-1.16v-4.32h1.16Z"/>
      <path class="cls-3" d="M124.44,15.87l-.24,1h-1.2l1.26-4.32h1.54l1.29,4.32h-1.25l-.28-1h-1.11ZM125.4,15.01l-.2-.77c-.06-.24-.15-.6-.21-.85h-.01c-.06.26-.13.61-.19.86l-.19.77h.8Z"/>
      <path class="cls-3" d="M127.48,16.87v-4.32h1.36l.69,1.33c.24.43.49,1.01.68,1.51h.02c-.06-.57-.09-1.17-.09-1.82v-1.02h1.06v4.32h-1.22l-.73-1.43c-.24-.46-.53-1.04-.73-1.56h-.02c.03.58.04,1.24.04,1.93v1.06h-1.06Z"/>
      <path class="cls-3" d="M100.83,18.65h1.73v.45h-1.18v.83h1.1v.45h-1.1v1.27h-.55v-3Z"/>
      <path class="cls-3" d="M105.01,20.54c0,.8-.56,1.15-1.11,1.15-.61,0-1.09-.42-1.09-1.12s.47-1.15,1.12-1.15,1.08.45,1.08,1.11ZM103.37,20.57c0,.42.2.73.54.73.31,0,.53-.31.53-.74,0-.34-.15-.73-.53-.73s-.54.37-.54.73Z"/>
      <path class="cls-3" d="M107.32,21c0,.26,0,.47.02.65h-.48l-.03-.33h0c-.09.16-.31.38-.69.38s-.76-.24-.76-.94v-1.27h.55v1.18c0,.36.12.59.4.59.22,0,.36-.16.42-.29.02-.05.03-.11.03-.17v-1.31h.55v1.52Z"/>
      <path class="cls-3" d="M107.83,20.12c0-.25,0-.46-.02-.65h.48l.03.32h.01c.09-.17.33-.37.69-.37.38,0,.77.24.77.93v1.29h-.55v-1.22c0-.31-.12-.55-.41-.55-.22,0-.37.16-.43.32-.02.05-.02.12-.02.18v1.27h-.55v-1.52Z"/>
      <path class="cls-3" d="M112.3,18.49v2.55c0,.22,0,.46.02.61h-.49l-.02-.34h0c-.13.24-.39.39-.71.39-.52,0-.93-.44-.93-1.11,0-.73.45-1.16.97-1.16.3,0,.51.12.61.28h0v-1.23h.55ZM111.75,20.38s0-.1-.01-.14c-.05-.21-.22-.39-.47-.39-.35,0-.55.31-.55.72s.2.69.54.69c.22,0,.42-.15.47-.39.01-.05.02-.1.02-.16v-.32Z"/>
      <path class="cls-3" d="M113.2,20.72c.01.39.32.56.67.56.25,0,.44-.04.6-.1l.08.38c-.19.08-.45.13-.76.13-.7,0-1.12-.43-1.12-1.09,0-.6.36-1.17,1.06-1.17s.93.58.93,1.05c0,.1,0,.18-.02.23h-1.45ZM114.15,20.33c0-.2-.08-.53-.45-.53-.34,0-.48.31-.5.53h.95Z"/>
      <path class="cls-3" d="M117.06,18.49v2.55c0,.22,0,.46.02.61h-.49l-.02-.34h0c-.13.24-.39.39-.71.39-.52,0-.93-.44-.93-1.11,0-.73.45-1.16.97-1.16.3,0,.51.12.61.28h0v-1.23h.55ZM116.51,20.38s0-.1-.01-.14c-.05-.21-.22-.39-.47-.39-.35,0-.55.31-.55.72s.2.69.54.69c.22,0,.42-.15.47-.39.01-.05.02-.1.02-.16v-.32Z"/>
      <path class="cls-3" d="M119.08,18.87c0,.16-.12.29-.31.29s-.3-.13-.3-.29.12-.3.31-.3.3.13.31.3ZM118.5,21.65v-2.17h.55v2.17h-.55Z"/>
      <path class="cls-3" d="M119.55,20.12c0-.25,0-.46-.02-.65h.48l.03.32h.01c.09-.17.33-.37.69-.37.38,0,.77.24.77.93v1.29h-.55v-1.22c0-.31-.12-.55-.41-.55-.22,0-.37.16-.43.32-.02.05-.02.12-.02.18v1.27h-.55v-1.52Z"/>
      <path class="cls-3" d="M123.53,19.25h0l-.53.27-.09-.41.7-.35h.46v2.89h-.53v-2.4Z"/>
      <path class="cls-3" d="M124.94,21.25c.08,0,.17,0,.3,0,.21-.02.43-.09.59-.22.19-.15.32-.37.37-.64h0c-.15.16-.35.25-.63.25-.5,0-.88-.36-.88-.9s.43-1.03,1.05-1.03c.67,0,1.03.53,1.03,1.23,0,.62-.2,1.06-.5,1.34-.25.24-.6.37-.99.4-.12.01-.25.01-.33,0v-.43ZM125.22,19.71c0,.3.17.53.48.53.22,0,.38-.1.47-.24.02-.04.03-.08.03-.16,0-.39-.14-.73-.5-.73-.28,0-.48.24-.48.6Z"/>
      <path class="cls-3" d="M128.26,21.65v-.73h-1.31v-.36l1.18-1.8h.65v1.74h.37v.41h-.37v.73h-.52ZM128.26,20.5v-.79c0-.16,0-.33.02-.5h-.02c-.09.18-.16.33-.25.49l-.53.79h0s.79,0,.79,0Z"/>
      <path class="cls-3" d="M131.14,19.21h-1.11l-.08.58c.07,0,.12-.01.21-.01.25,0,.51.06.7.19.22.14.38.38.38.73,0,.55-.46,1-1.17,1-.33,0-.61-.08-.77-.17l.11-.41c.12.07.37.15.64.15.32,0,.63-.18.63-.53,0-.33-.24-.55-.82-.55-.16,0-.28,0-.4.03l.19-1.46h1.5v.45Z"/>
    </g>
  </g>
  <g>
    <path class="cls-3" d="M61.24,25.85H0V0h61.24v25.85ZM.7,25.15h59.84V.7H.7v24.45Z"/>
    <polygon class="cls-1" points=".35 .35 60.89 .35 60.89 25.5 .35 25.5 .35 .35 .35 .35"/>
    <path class="cls-2" d="M10.57,15.72h.58c1.58,0,2.2.5,2.2,2.34,0,1.73-.76,2.41-2.14,2.41h-.63v-4.75h0ZM11.49,22.57c2.95,0,4.85-1.29,4.85-4.63,0-2.95-1.84-4.28-4.75-4.28h-4v8.91h3.9ZM20.1,15.72h1.37c.71,0,1.2.32,1.2.92,0,.65-.48.87-1.4.87h-1.16v-1.79h0ZM21,19.47c1.39,0,1.6.36,1.6,1.53,0,.78.08,1.36.15,1.57h3.01v-.28c-.35,0-.31-.39-.31-1.57,0-1.78-.57-2.02-1.54-2.35,1.08-.32,1.54-1.16,1.54-2.17,0-1.74-1-2.54-4.02-2.54h-4.29v8.91h2.98v-3.1h.89ZM26.04,18.69c0,3.05,1.58,4.11,4.38,4.11,3.01,0,4.38-1.27,4.38-4.11v-5.03h-2.98v5.33c0,.97-.33,1.63-1.4,1.63-1.21,0-1.4-.75-1.4-1.63v-5.33h-2.98v5.03h0ZM44.61,17.66h-4.1v1.9h1.34c-.18.66-.91,1.04-1.54,1.04-1.5,0-1.9-1.14-1.9-2.39,0-1.58.53-2.63,1.72-2.63.77,0,1.33.41,1.53,1.15h2.84c-.38-2.22-2.12-3.34-4.31-3.34-2.94,0-4.76,1.97-4.76,4.81,0,3.11,2.07,4.58,4.41,4.58,1.42,0,2.24-.51,2.76-1.08l.09.88h1.93v-4.94h0ZM53.27,16.22c-.23-1.53-1.37-2.81-3.91-2.81-2.27,0-3.94.98-3.94,2.86,0,3.41,5.21,2.49,5.21,3.82,0,.43-.47.66-1.24.66-.27,0-.6-.07-.82-.21-.25-.2-.42-.4-.49-.74h-2.87c.05,1.64,1.62,3,4.03,3s4.27-1.01,4.27-3.08c0-3.24-5.26-2.4-5.26-3.75,0-.32.32-.51.94-.51.33,0,.57.08.8.2.23.09.39.26.41.56h2.86Z"/>
    <path class="cls-2" d="M10.18,12.01v-2.04h-4.01V3.29h-2.92v8.72h6.94ZM14.97,5.18c1.3-.05,1.78,1.24,1.78,2.4,0,1.46-.48,2.51-1.77,2.51-1.39,0-1.74-1.39-1.74-2.51s.39-2.4,1.73-2.4h0ZM14.98,3.04c-2.75,0-4.67,1.77-4.67,4.52,0,2.99,1.88,4.66,4.67,4.66s4.71-1.63,4.71-4.64c0-2.28-1.48-4.54-4.71-4.54h0ZM23.04,3.29h-2.73v8.72h2.78v-2.78l-.12-1.98,3.23,4.76h2.74V3.29h-2.83v2.76l.1,1.99-3.18-4.75h0ZM32.78,5.34h.56c1.56,0,2.18.47,2.18,2.28,0,1.65-.77,2.35-2.14,2.35h-.61v-4.63h0ZM33.71,12.01c2.87,0,4.75-1.27,4.75-4.56,0-2.89-1.78-4.16-4.71-4.16h-3.9v8.72h3.86ZM43.85,5.18c1.32-.05,1.79,1.24,1.79,2.4,0,1.46-.48,2.51-1.76,2.51-1.39,0-1.76-1.39-1.76-2.51s.41-2.4,1.73-2.4h0ZM43.88,3.04c-2.77,0-4.7,1.77-4.7,4.52,0,2.99,1.91,4.66,4.7,4.66s4.7-1.63,4.7-4.64c0-2.28-1.49-4.54-4.7-4.54h0ZM52.05,3.29h-2.75v8.72h2.81v-2.78l-.11-1.98,3.2,4.76h2.73V3.29h-2.79v2.76l.1,1.99-3.19-4.75h0Z"/>
    <g>
      <path class="cls-6" d="M53.34,14.26c0-.59.51-1.09,1.15-1.09.57,0,1.09.5,1.09,1.09s-.51,1.07-1.09,1.07c-.63,0-1.15-.5-1.15-1.07h0Z"/>
      <path class="cls-2" d="M53.91,14.92h.26v-.56h.33c.17,0,.3.06.3.3,0,.18,0,.2,0,.26h.27c-.01-.08-.01-.23-.01-.3,0-.18-.09-.3-.21-.3v-.05c.18-.04.21-.18.21-.32,0-.24-.17-.41-.39-.41h-.76v1.37h0ZM54.17,13.82h.36c.17,0,.2.06.2.17s-.03.21-.2.21h-.36v-.38h0Z"/>
    </g>
  </g>
</svg>