<svg width="161" height="16" viewBox="0 0 161 16" fill="none" xmlns="http://www.w3.org/2000/svg">
<path d="M138.08 15.7353H143.959C149.527 15.7353 152.776 12.4202 152.776 7.95642V7.91218C152.776 3.44812 149.572 0.265747 144.047 0.265747H138.08V15.7353ZM142.367 11.934V4.0667H144.113C146.677 4.0667 148.378 5.5034 148.378 7.97836V8.0226C148.378 10.5199 146.677 11.934 144.113 11.934H142.367Z" fill="white"/>
<path d="M103.47 15.7353H116.023V12.0886H107.713V9.63591H115.139V6.2547H107.713V3.91204H115.912V0.265747H103.47V15.7353Z" fill="white"/>
<path d="M85.5554 15.7353H89.8423V9.85676H95.3456V15.7353H99.6325V0.265747H95.3456V6.05552H89.8423V0.265747H85.5554V15.7353Z" fill="white"/>
<path d="M67.9467 15.7353H72.2338V11.05H74.1125L77.2283 15.7353H82.1787L78.4884 10.3433C80.4113 9.5252 81.6704 7.95642 81.6704 5.59153V5.54764C81.6704 4.02246 81.2065 2.82919 80.3 1.94524C79.262 0.884327 77.6261 0.265747 75.2618 0.265747H67.9467V15.7353ZM72.2338 7.69105V3.97858H75.0407C76.4773 3.97858 77.3611 4.59716 77.3611 5.81266V5.85661C77.3611 6.98399 76.521 7.69105 75.0626 7.69105H72.2338Z" fill="white"/>
<path d="M33.0344 15.7353H45.587V12.0886H37.2776V9.63591H44.7032V6.2547H37.2776V3.91204H45.4762V0.265747H33.0344V15.7353Z" fill="white"/>
<path d="M17.2448 15.7353H21.5323V11.3154H23.6537C27.4992 11.3154 30.3055 9.39284 30.3055 5.74648V5.70224C30.3055 2.2765 27.7862 0.265747 23.8746 0.265747H17.2448V15.7353ZM21.5323 7.95642V3.8678H23.5433C25.0901 3.8678 26.0183 4.57521 26.0183 5.90085V5.94509C26.0183 7.1606 25.0901 7.95642 23.5653 7.95642H21.5323Z" fill="white"/>
<path d="M7.79569 16C11.5527 16 14.0499 14.1219 14.0499 10.9615V10.9173C14.0499 8.02223 11.8401 6.87319 8.28191 6.09967C6.13815 5.61345 5.60769 5.30384 5.60769 4.59707V4.55282C5.60769 4.00014 6.11592 3.55817 7.15482 3.55817C8.52498 3.55817 10.0718 4.08862 11.4862 5.083L13.6296 2.05557C11.9505 0.707345 9.89522 0 7.26495 0C3.5527 0 1.27628 2.07758 1.27628 4.95035V4.99451C1.27628 8.17689 3.81778 9.10508 7.11058 9.85638C9.2101 10.3429 9.71825 10.6962 9.71825 11.3373V11.3816C9.71825 12.0444 9.09939 12.4421 7.95036 12.4421C6.16009 12.4421 4.45866 11.8012 2.93383 10.5857L0.546997 13.4365C2.44762 15.1386 5.05501 16 7.79569 16Z" fill="white"/>
<path d="M55.0861 9.63626L56.832 5.23832L58.5558 9.63626H55.0861ZM58.9782 0.265747H54.7525L48.2129 15.7356H52.7212L53.8263 12.9729H59.7936L60.9204 15.7356H65.5172L58.9782 0.265747Z" fill="white"/>
<path d="M129.111 0.265747H124.885L118.346 15.7353H122.854L123.959 12.9729H126.419V9.63627H125.219L126.965 5.23832L128.689 9.63627H127.505V12.9729H129.927L131.053 15.7353H135.65L129.111 0.265747Z" fill="white"/>
<path d="M157.702 2.06706H156.888V3.13553H157.706C158.107 3.13553 158.361 2.92664 158.361 2.59925C158.361 2.24815 158.116 2.06706 157.702 2.06706ZM158.37 4.74129L157.588 3.63156H156.888V4.74129H156.329V1.55756H157.748C158.479 1.55756 158.931 1.94412 158.931 2.56719C158.931 3.09511 158.616 3.41262 158.17 3.53624L159.03 4.74129H158.37Z" fill="white"/>
<path d="M157.564 0.615551C156.097 0.615551 154.906 1.80849 154.906 3.27426C154.906 4.73986 156.097 5.9328 157.564 5.9328C159.03 5.9328 160.223 4.73986 160.223 3.27426C160.223 1.80849 159.03 0.615551 157.564 0.615551ZM157.564 6.27383C155.91 6.27383 154.564 4.92828 154.564 3.27426C154.564 1.62024 155.91 0.273834 157.564 0.273834C159.218 0.273834 160.564 1.62024 160.564 3.27426C160.564 4.92828 159.218 6.27383 157.564 6.27383Z" fill="white"/>
</svg>
