<svg width="46" height="75" viewBox="0 0 46 75" fill="none" xmlns="http://www.w3.org/2000/svg">
<path d="M8.0575 68.7939V63.7042H9.97119C11.8659 63.7042 11.8659 66.8471 9.97119 66.8471H9.02381V68.7939H8.0575ZM9.8883 65.8571C10.542 65.8571 10.542 64.7155 9.8883 64.7155H9.03092V65.8571H9.8883Z" fill="white"/>
<path d="M17.4507 68.7939L16.4702 66.8471H15.9965V68.7939H15.0231V63.697H16.9439C18.68 63.697 18.8386 66.255 17.4176 66.6908L18.5473 68.7939H17.4507ZM15.9989 65.8571H16.8562C17.517 65.8571 17.517 64.7155 16.8562 64.7155H15.9989V65.8571Z" fill="white"/>
<path d="M22.0574 68.7939V63.697H23.0308V68.7939H22.0574Z" fill="white"/>
<path d="M26.8843 67.3966C27.2862 67.6897 27.7781 67.8329 28.2745 67.8016C28.3414 67.8019 28.4076 67.7888 28.4693 67.7631C28.531 67.7374 28.5869 67.6996 28.6337 67.6519C28.6805 67.6042 28.7173 67.5476 28.7418 67.4854C28.7664 67.4232 28.7782 67.3568 28.7767 67.29C28.7577 66.9963 28.5398 66.8684 28.2745 66.7689C27.5119 66.4776 26.8298 66.0702 26.8298 65.2152C26.8298 64.3602 27.3958 63.7041 28.2058 63.6615C28.6209 63.641 29.0353 63.7138 29.4185 63.8747L29.2953 64.8576C28.9858 64.7073 28.6445 64.6341 28.3006 64.6444C28.2306 64.647 28.162 64.6643 28.0992 64.6952C28.0363 64.7261 27.9807 64.77 27.936 64.8238C27.8913 64.8777 27.8585 64.9404 27.8397 65.0079C27.8209 65.0753 27.8165 65.146 27.8269 65.2152C27.8553 65.5018 28.0922 65.6297 28.3716 65.7268C29.1177 66.011 29.7667 66.4847 29.7667 67.29C29.7756 67.4891 29.7442 67.6879 29.6744 67.8746C29.6046 68.0613 29.4979 68.232 29.3605 68.3764C29.2232 68.5208 29.0581 68.636 28.8751 68.7151C28.6922 68.7942 28.4952 68.8355 28.2958 68.8366C27.759 68.8566 27.2271 68.7279 26.7587 68.4647L26.8843 67.3966Z" fill="white"/>
<path d="M37.6039 63.6189H37.9094V68.7939H36.9218V65.9518L35.6878 67.3184L34.442 65.9494V68.7916H33.4543V63.6189H33.767L35.6878 65.8571L37.6039 63.6189Z" fill="white"/>
<path d="M19.0826 58.1975L13.8649 15.9468L36.0715 25.6337L21.8158 43.4823L21.8205 43.4871V45.2374H29.9182L25.3874 41.3081L45.3487 16.3186L46 15.5039L12.2117 0.757903L10.4733 0L10.6627 1.53002L12.3633 15.2931L16.8965 51.9898L8.63062 59.4338H17.7752L19.0826 58.1975Z" fill="white"/>
<g style="mix-blend-mode:multiply">
<path d="M16.9368 52.3095L9.01194 59.4338H8.63062L16.8965 51.9898L16.9368 52.3095Z" fill="white"/>
</g>
<g style="mix-blend-mode:multiply">
<g style="mix-blend-mode:multiply">
<path d="M22.0408 45.0881L22.0455 43.4302L22.1426 43.3331L36.2135 25.6977L37.4333 26.2258L37.6109 26.0056L36.3912 25.4869L13.8293 15.646L13.8672 15.9515L36.0714 25.6337L21.8158 43.4823L21.8205 43.4871V45.2374H29.9182L29.7216 45.0881H22.0408Z" fill="white"/>
</g>
<g style="mix-blend-mode:multiply">
<path d="M8.63062 59.4338H17.7752L19.0826 58.1975L19.0376 57.8257L17.7752 59.0715H9.09483L8.63062 59.4338Z" fill="white"/>
</g>
<g style="mix-blend-mode:multiply">
<path d="M18.1044 59.1615L12.683 15.1439L10.8309 0.156318L10.4733 0L12.3633 15.2931L17.7752 59.0809L18.1044 59.1615Z" fill="white"/>
</g>
</g>
<g style="mix-blend-mode:multiply">
<g style="mix-blend-mode:multiply" opacity="0.5">
<path d="M13.8649 15.9468L12.2094 0.757904L17.8842 17.7018L13.8649 15.9468Z" fill="white"/>
</g>
<g style="mix-blend-mode:multiply" opacity="0.8">
<path d="M13.8649 15.9468L12.2094 0.757904L15.8141 16.797L13.8649 15.9468Z" fill="white"/>
</g>
<g style="mix-blend-mode:multiply" opacity="0.5">
<path d="M36.0714 25.6337L37.4333 26.2258L34.9512 27.0216L36.0714 25.6337Z" fill="white"/>
</g>
<g style="mix-blend-mode:multiply" opacity="0.8">
<path d="M36.0715 25.6337L37.4334 26.2258L35.4699 26.3774L36.0715 25.6337Z" fill="white"/>
</g>
<g style="mix-blend-mode:multiply" opacity="0.5">
<path d="M22.5358 44.8324L25.3874 41.3081L26.8108 42.5421L22.5358 44.8324Z" fill="white"/>
</g>
<g style="mix-blend-mode:multiply" opacity="0.8">
<path d="M22.8816 44.4416L25.3874 41.3081L26.1453 41.9665L22.8816 44.4416Z" fill="white"/>
</g>
<g style="mix-blend-mode:multiply" opacity="0.5">
<path d="M16.8965 51.9898L17.7752 59.0809L14.637 54.0243L16.8965 51.9898Z" fill="white"/>
</g>
<g style="mix-blend-mode:multiply" opacity="0.8">
<path d="M16.8965 51.9898L17.7752 59.0809L15.7905 52.9869L16.8965 51.9898Z" fill="white"/>
</g>
</g>
<path d="M45.9692 65.985H39.8989V66.4729H45.9692V65.985Z" fill="white"/>
<path d="M6.07033 65.985H0V66.4729H6.07033V65.985Z" fill="white"/>
<path d="M9.7116 73.3244C10.064 73.3244 10.3056 73.1738 10.4932 72.9833L10.425 72.918C10.2488 73.0999 10.0271 73.2363 9.71728 73.2363C9.21423 73.2363 8.83338 72.8128 8.83338 72.2984V72.2927C8.83338 71.7783 9.20854 71.3548 9.71444 71.3548C10.047 71.3548 10.2488 71.4941 10.4136 71.6532L10.4818 71.5822C10.2886 71.4031 10.0868 71.2667 9.71728 71.2667C9.14886 71.2667 8.7339 71.7356 8.7339 72.2955V72.3012C8.7339 72.8668 9.14886 73.3244 9.7116 73.3244ZM11.1851 73.2903H12.4811V73.2022H11.2817V71.3008H11.1851V73.2903ZM13.8912 73.3216C14.3715 73.3216 14.6983 73.0174 14.6983 72.4234V71.3008H14.6017V72.432C14.6017 72.9663 14.3232 73.2334 13.894 73.2334C13.462 73.2334 13.1778 72.9549 13.1778 72.4263V71.3008H13.0812V72.432C13.0812 73.0203 13.4137 73.3216 13.8912 73.3216ZM15.5421 73.2903H16.4033C16.8467 73.2903 17.1167 73.0942 17.1167 72.7645V72.7588C17.1167 72.4888 16.9035 72.3211 16.642 72.2728C16.8438 72.216 17.0087 72.0568 17.0087 71.801V71.7953C17.0087 71.6646 16.9632 71.5566 16.8808 71.4742C16.7699 71.3633 16.588 71.3008 16.3606 71.3008H15.5421V73.2903ZM15.6387 72.2415V71.3889H16.3578C16.7074 71.3889 16.912 71.5537 16.912 71.8039V71.8095C16.912 72.0966 16.6761 72.2415 16.3805 72.2415H15.6387ZM15.6387 73.2022V72.3296H16.4175C16.7699 72.3296 17.0172 72.4831 17.0172 72.7617V72.7673C17.0172 73.0373 16.7898 73.2022 16.4061 73.2022H15.6387ZM20.4468 73.3244L20.5179 73.2619L20.1626 72.8867C20.2763 72.7332 20.3729 72.5428 20.4582 72.3268L20.3729 72.2955C20.2905 72.5059 20.2053 72.6764 20.1029 72.8213L19.526 72.2103C19.8869 72.0625 20.0376 71.909 20.0376 71.6845V71.6788C20.0376 71.4628 19.8557 71.2667 19.5914 71.2667C19.2986 71.2667 19.1196 71.477 19.1196 71.6959V71.7015C19.1196 71.8522 19.1906 71.9914 19.3697 72.1847C19.0741 72.3098 18.8354 72.4746 18.8354 72.7844V72.7901C18.8354 73.0857 19.0826 73.3187 19.4322 73.3187C19.6994 73.3187 19.921 73.1851 20.1058 72.9606L20.4468 73.3244ZM19.4663 72.1506C19.2759 71.9516 19.2162 71.8266 19.2162 71.6959V71.6902C19.2162 71.5168 19.3583 71.3491 19.5885 71.3491C19.8017 71.3491 19.9438 71.5083 19.9438 71.6816V71.6873C19.9438 71.8777 19.813 72.0113 19.4663 72.1506ZM19.4322 73.2334C19.1338 73.2334 18.932 73.0288 18.932 72.7872V72.7815C18.932 72.5144 19.1451 72.3638 19.4294 72.2472L20.0461 72.8981C19.8784 73.1027 19.6709 73.2334 19.4322 73.2334ZM22.2994 73.2903H22.396V72.7474L22.9275 72.2216L23.7716 73.2903H23.8967L22.9957 72.1563L23.8626 71.3008H23.729L22.396 72.6309V71.3008H22.2994V73.2903ZM24.6185 73.2903H24.7152V71.3008H24.6185V73.2903ZM26.1302 73.2903H26.2268V71.3889H26.9373V71.3008H25.4225V71.3889H26.1302V73.2903ZM28.3576 73.3244C28.71 73.3244 28.9516 73.1738 29.1392 72.9833L29.071 72.918C28.8947 73.0999 28.6731 73.2363 28.3633 73.2363C27.8602 73.2363 27.4794 72.8128 27.4794 72.2984V72.2927C27.4794 71.7783 27.8545 71.3548 28.3604 71.3548C28.693 71.3548 28.8947 71.4941 29.0596 71.6532L29.1278 71.5822C28.9345 71.4031 28.7327 71.2667 28.3633 71.2667C27.7948 71.2667 27.3799 71.7356 27.3799 72.2955V72.3012C27.3799 72.8668 27.7948 73.3244 28.3576 73.3244ZM29.8311 73.2903H29.9277V72.3325H31.2891V73.2903H31.3857V71.3008H31.2891V72.2444H29.9277V71.3008H29.8311V73.2903ZM32.2608 73.2903H33.6762V73.2022H32.3574V72.3325H33.5369V72.2444H32.3574V71.3889H33.6619V71.3008H32.2608V73.2903ZM34.4351 73.2903H34.5289V71.4514L35.9954 73.2903H36.0722V71.3008H35.9784V73.1254L34.5232 71.3008H34.4351V73.2903Z" fill="white"/>
</svg>
