<?xml version="1.0" encoding="UTF-8"?><svg id="Layer_1" xmlns="http://www.w3.org/2000/svg" viewBox="0 0 168.36 90"><defs><style>.cls-1{fill:#fff;}</style></defs><path class="cls-1" d="m112.64,48.56c-.61-.85-1.13-1.46-1.13-1.46,2.19.16,4.39.19,6.59.08,2.56-.22,6.2-.85,6.2-.85,0,0-1.14-.74-1.99-1.39s-2.16-1.76-2.16-1.76c2.49-.1,4.96-.49,7.37-1.15,2.69-.95,7.48-3.02,7.48-3.02-.7-.35-1.37-.75-2-1.2-.5-.34-.88-.84-1.06-1.42,1.87.02,3.74-.18,5.57-.58,1.82-.59,5.51-2.28,5.51-2.28-1.07-.5-2.1-1.07-3.09-1.7-.59-.47-1.12-1.02-1.59-1.62,2.08-.64,4.11-1.45,6.05-2.44,1.98-1.29,3.84-2.75,5.56-4.36v-.03s-2.12-1.3-3.87-2.15c-1.55-.65-3.16-1.14-4.8-1.47.1-.63.42-1.2.9-1.62.5-.51,1.13-.89,1.82-1.11,0,0-3.21-.98-5.11-1.49-1.91-.51-5.28-1.1-5.28-1.1.36-.5.79-.94,1.28-1.31.56-.48,1.19-.88,1.86-1.18,0,0-4.69-1.41-6.9-1.82-1.82-.29-3.65-.47-5.49-.56,0,0,.7-1.13,1.2-1.82.66-.76,1.36-1.48,2.11-2.14-1.86-.58-3.77-.96-5.71-1.15-1.72.04-3.43.23-5.11.57,0,0-.43-.36,0-1.3.22-.53.58-1,1.03-1.36-1.75-.41-3.55-.58-5.34-.49-1.74.24-3.43.77-5,1.54-.26-.37-.36-.83-.3-1.28.26-.76.63-1.49,1.1-2.15-1.94.62-3.84,1.38-5.68,2.27-1.21.71-2.35,1.53-3.41,2.45-.26-.39-.4-.85-.38-1.31,0-.59.14-1.17.4-1.7-2.22.82-4.2,2.19-5.73,4-1.3,1.45-2.31,3.14-2.96,4.98,0,0-.17.18-.85-1.3-.4-.83-.61-1.74-.64-2.66-1.95,3.2-3.55,6.6-4.77,10.14C79.42,7.63,64.24.2,64.24.2c.52.6,1,1.23,1.43,1.9.45.72.75,1.51.9,2.34,0,0-3.77-1.57-5.46-2.11-2.2-.53-4.44-.94-6.68-1.24,0,0,.58.85,1.18,1.7.61.85,1.13,1.46,1.13,1.46-2.19-.16-4.39-.19-6.59-.08-2.56.22-6.2.85-6.2.85,0,0,1.14.74,1.99,1.39s2.16,1.76,2.16,1.76c-2.49.1-4.96.49-7.37,1.15-2.69.95-7.48,3.02-7.48,3.02.7.35,1.37.75,2,1.2.5.34.88.84,1.06,1.42-1.87-.02-3.74.18-5.57.58-1.82.59-5.51,2.28-5.51,2.28,1.07.5,2.1,1.07,3.09,1.7.59.47,1.12,1.02,1.59,1.62-2.08.64-4.11,1.45-6.05,2.44-1.98,1.29-3.84,2.75-5.57,4.36,0,0,2.11,1.3,3.86,2.15,1.55.65,3.16,1.14,4.8,1.47-.1.63-.42,1.2-.9,1.62-.5.51-1.13.89-1.82,1.11,0,0,3.21.98,5.11,1.49,1.91.51,5.28,1.1,5.28,1.1-.36.5-.79.94-1.28,1.31-.56.48-1.19.88-1.86,1.18,0,0,4.68,1.41,6.9,1.82,1.82.29,3.65.47,5.49.56,0,0-.7,1.13-1.19,1.82-.66.76-1.36,1.48-2.11,2.14,1.86.58,3.77.97,5.71,1.16,1.72-.04,3.43-.23,5.11-.57,0,0,.43.36,0,1.3-.22.53-.58,1-1.03,1.36,1.75.41,3.55.58,5.34.49,1.74-.24,3.43-.77,5-1.54.26.37.37.83.31,1.28-.26.76-.63,1.49-1.1,2.15,1.95-.62,3.85-1.38,5.69-2.27,1.21-.71,2.35-1.52,3.41-2.44.26.38.4.85.38,1.31,0,.59-.14,1.17-.4,1.7,2.22-.82,4.19-2.19,5.72-4,1.3-1.45,2.31-3.14,2.96-4.98,0,0,.17-.18.85,1.3.4.83.61,1.74.64,2.66,1.95-3.2,3.55-6.6,4.77-10.14,4.9,9.23,20.08,16.66,20.08,16.66-.52-.6-.99-1.23-1.42-1.89-.45-.72-.75-1.51-.9-2.34,0,0,3.77,1.57,5.46,2.11,2.2.53,4.43.94,6.68,1.24,0,0-.58-.85-1.18-1.7Zm-10.02-12.46c-2.37-1.65-4.35-4.53-5.97-7.36l-1.42-.08c-2.57-.15-5.14-.47-7.67-.94.77,2.34,1.34,3.03,3.23,5.97,1.97,2.92,4.49,5.43,7.42,7.38-1.92-.57-5.38-3.73-7.19-5.58-1.7-1.7-3.24-4-5.26-8.17h-.06c-2-.67-4.05-1.19-6.13-1.53-.93,3.06-2.59,5.84-4.83,8.12-1.64,1.54-5.16,4.65-7.08,5.33,2.68-2.35,5.09-5,7.18-7.89,1.82-2.56,1.85-2.93,2.87-5.83-1.36-.19-2.73-.32-4.09-.42-1.86-.13-3.73-.2-5.6-.2-1.17,3.03-2.68,6.21-4.78,8.09-2.29,2.05-5.19,4.3-6.99,4.79,2.81-1.93,5.28-4.31,7.31-7.05,1.54-2.25,1.83-3.69,2.56-5.82-2,0-4.01.12-5.97.26-1.22,0-2.43.09-3.65.14-1.17,2.03-2.6,4.13-4.36,5.17-1.91,1.13-4.26,2.33-5.68,2.4,2.27-.95,4.35-2.31,6.14-4,.96-1.02,1.74-2.19,2.29-3.48-6.47.4-12.9,1.19-19.27,2.35,7.27-2.09,14.67-3.68,22.16-4.74-.9-1.63-2.05-3.11-3.41-4.38-2.39-2.04-5.08-3.71-7.97-4.94,1.7.14,4.75,1.65,7.22,3.05,2.22,1.27,4.19,3.68,5.84,6.05,3.41-.24,6.82-.37,10.23-.29-.81-1.83-1.9-3.53-3.24-5.02-2.57-2.64-5.53-4.86-8.78-6.6,1.97.35,5.37,2.42,8.1,4.32,2.37,1.65,4.35,4.53,5.97,7.36l1.42.08c2.57.15,5.14.47,7.67.94-.77-2.34-1.34-3.03-3.23-5.97-1.97-2.92-4.49-5.43-7.42-7.38,1.92.57,5.38,3.73,7.19,5.58,1.7,1.7,3.24,4,5.26,8.17h.05c2,.67,4.05,1.19,6.14,1.53.93-3.06,2.59-5.84,4.83-8.12,1.64-1.54,5.16-4.65,7.08-5.33-2.68,2.36-5.09,5.01-7.18,7.9-1.82,2.56-1.85,2.93-2.87,5.83,1.36.19,2.73.32,4.09.42,1.86.13,3.73.2,5.61.2,1.17-3.03,2.69-6.21,4.78-8.09,2.29-2.05,5.19-4.3,6.99-4.79-2.81,1.93-5.28,4.31-7.31,7.05-1.54,2.25-1.83,3.69-2.56,5.82,2,0,4.01-.12,5.97-.26,1.22,0,2.43-.09,3.65-.14,1.17-2.03,2.6-4.13,4.36-5.17,1.91-1.13,4.26-2.33,5.68-2.4-2.27.95-4.35,2.31-6.14,4-.96,1.01-1.74,2.19-2.29,3.48,6.46-.4,12.9-1.19,19.27-2.35-7.27,2.09-14.67,3.68-22.16,4.74.9,1.63,2.05,3.11,3.41,4.38,2.39,2.04,5.08,3.71,7.97,4.94-1.7-.14-4.76-1.65-7.22-3.05-2.22-1.27-4.19-3.68-5.84-6.05-3.41.24-6.82.37-10.23.29.81,1.83,1.9,3.52,3.24,5.01,2.57,2.64,5.53,4.86,8.78,6.6-1.97-.35-5.37-2.42-8.1-4.32Z"/><path class="cls-1" d="m5.98,78.08h-.12c-.9.05-1.89.05-2.84.05s-1.9-.05-3-.05v.5l.75.05c.42.03.6.12.72.28.15.39.21.81.17,1.22v7.48c.04.42-.01.85-.15,1.25-.1.16-.3.25-.7.25l-.8.05v.5c.87-.05,1.7-.05,2.47-.05s1.57.05,2.42.05v-.5l-.8-.05c-.4-.02-.6-.08-.7-.25-.14-.4-.19-.83-.15-1.25v-8.7c.56-.14,1.13-.21,1.7-.2,1.65,0,2.7.78,2.7,2.49,0,.03,0,.06,0,.09,0,1.33-1.08,2.4-2.41,2.4-.37,0-.74-.06-1.1-.17l.17.6c.33.07.66.1,1,.1.03,0,.06,0,.1,0,2.07.08,3.82-1.52,3.9-3.59,0-1.84-1.75-2.56-3.33-2.56Z"/><path class="cls-1" d="m17.82,88.79c-1.13.2-2.27.27-3.41.21-.47.01-.94-.03-1.4-.14v-4.67c.52-.05,1.13-.05,1.93-.05.6-.06,1.2,0,1.76.2.09.05.14.2.14.42l.09.98h.5c-.05-.6-.05-1.24-.05-1.85s.05-1.25.05-1.94h-.5l-.09.85c-.02.22-.05.37-.14.43-.57.18-1.17.24-1.76.19-.8,0-1.4-.05-1.93-.05v-4.45c.46-.1.93-.15,1.4-.14,1.1-.06,2.2.06,3.26.35.15.05.15.24.15.45v1.08h.59c-.01-.86.08-1.72.26-2.56-.65-.05-1.4-.05-2.15-.05-.95,0-2.49.05-3.94.05h-2.81v.5l.8.05c.4.02.6.08.7.25.14.4.19.83.15,1.25l.03,7.48c.04.42-.01.85-.15,1.25-.09.16-.3.25-.7.25l-.6.05v.5c.6-.05,1.15-.05,1.78-.05,1.03,0,2.34.05,3.63.05h.52c1.07,0,2.14-.05,2.77-.05,0-.92.09-1.83.26-2.74h-.59c-.11,1.01-.33,1.73-.58,1.87Z"/><path class="cls-1" d="m25.81,78.08h-.12c-.9.05-1.89.05-2.84.05s-1.9-.05-3-.05v.5l.75.05c.42.03.6.12.72.28.15.39.21.81.17,1.22v7.48c.04.42-.01.85-.15,1.25-.1.16-.3.25-.7.25l-.8.05v.5c.87-.05,1.7-.05,2.47-.05s1.57.05,2.42.05v-.5l-.8-.05c-.4-.02-.6-.08-.7-.25-.14-.4-.19-.83-.15-1.25v-8.7c.55-.14,1.12-.21,1.7-.2,1.65,0,2.7.78,2.7,2.49,0,.03,0,.06,0,.09,0,1.33-1.08,2.4-2.41,2.4-.37,0-.74-.06-1.1-.17l.17.6c.33.07.66.1,1,.1,2.21,0,4.01-1.51,4.01-3.59,0-1.84-1.75-2.56-3.33-2.56Z"/><path class="cls-1" d="m35.59,78.08h-.12c-.9.05-1.89.05-2.84.05s-1.9-.05-3-.05v.5l.75.05c.42.03.6.12.72.28.15.39.21.81.17,1.22v7.48c.04.42-.01.85-.15,1.25-.1.16-.3.25-.7.25l-.8.05v.5c.87-.05,1.7-.05,2.47-.05s1.57.05,2.42.05v-.5l-.8-.05c-.4-.02-.6-.08-.7-.25-.14-.4-.19-.83-.15-1.25v-8.7c.55-.14,1.12-.21,1.7-.2,1.65,0,2.7.78,2.7,2.49,0,.03,0,.06,0,.09,0,1.33-1.08,2.4-2.41,2.4-.37,0-.74-.06-1.1-.17l.17.6c.33.07.66.1,1,.1,2.21,0,4.01-1.51,4.01-3.59,0-1.84-1.75-2.56-3.33-2.56Z"/><path class="cls-1" d="m47.45,88.79c-1.13.2-2.27.27-3.41.21-.47.01-.94-.03-1.4-.14v-4.67c.52-.05,1.13-.05,1.93-.05.6-.06,1.2,0,1.76.2.09.05.14.2.14.42l.09.98h.5c-.05-.6-.05-1.24-.05-1.85s.05-1.25.05-1.94h-.5l-.09.85c-.02.22-.05.37-.14.43-.57.18-1.17.24-1.76.19-.8,0-1.4-.05-1.93-.05v-4.45c.46-.1.93-.15,1.4-.14,1.1-.06,2.2.06,3.26.35.15.05.15.24.15.45v1.08h.58c-.01-.86.08-1.72.26-2.56-.65-.05-1.4-.05-2.15-.05-.95,0-2.49.05-3.94.05h-2.81v.5l.8.05c.4.02.6.08.7.25.14.4.19.83.15,1.25l.03,7.48c.04.42-.01.85-.15,1.25-.09.16-.3.25-.7.25l-.6.05v.5c.6-.05,1.15-.05,1.78-.05,1.03,0,2.34.05,3.63.05h.52c1.07,0,2.14-.05,2.77-.05,0-.92.09-1.83.26-2.74h-.58c-.11,1.01-.33,1.73-.58,1.87Z"/><path class="cls-1" d="m55.45,83.81c1.61-.32,3.25-1.41,3.25-3.22,0-1.18-.66-2.51-3.22-2.51h-.15c-.96.05-1.93.05-2.92.05s-1.99-.05-2.84-.05v.5l.68.05c.4.03.6.08.7.25.14.4.19.83.15,1.25v7.48c.04.42-.01.85-.15,1.25-.1.16-.3.25-.7.25l-.8.05v.5c.87-.05,1.7-.05,2.47-.05s1.57.05,2.42.05v-.5l-.8-.05c-.4-.02-.6-.08-.7-.25-.14-.4-.19-.83-.15-1.25l.02-8.72c.56-.14,1.13-.21,1.7-.2,1.3,0,2.63.5,2.63,2.3-.05,1.2-.97,2.19-2.17,2.34-.34.05-.67.08-1.01.09-.15,0-.3,0-.45,0l-.1.2c.26.35.59.66.85,1.03l3.07,4.12c.21.31.47.59.68.9.38-.05.78-.05,1.13-.05s.77.05,1.2.05v-.5c-.39.02-.76-.14-1.01-.43l-3.78-4.94Z"/><path class="cls-1" d="m74.59,88.87c-.14-.4-.19-.83-.15-1.25l.08-7.48c-.04-.42.01-.85.15-1.25.1-.16.3-.25.7-.25l.7-.05v-.5c-.49.05-1.01.05-1.55.05s-1.05-.05-1.59-.05l-4.37,9.27-4.4-9.27c-.52.05-1.05.05-1.59.05s-1.07-.05-1.59-.05v.5l.73.05c.4.03.6.08.7.25.14.4.19.83.15,1.25v7.48c.04.42-.01.85-.15,1.25-.1.16-.3.25-.7.25l-.73.05v.5c.66-.05,1.26-.05,1.93-.05s1.27.05,2,.05v-.5l-.73-.05c-.4-.03-.6-.08-.7-.25-.14-.4-.19-.83-.15-1.25v-7.57l4.62,9.79h.33c.3-.71.59-1.44.9-2.12l2.97-6.3c.21-.44.45-.91.7-1.36v7.57c.04.42-.01.85-.15,1.25-.09.16-.3.25-.7.25l-.57.05v.5c.63-.05,1.47-.05,2.23-.05s1.57.05,2.42.05v-.5l-.8-.05c-.4-.02-.6-.08-.7-.25Z"/><path class="cls-1" d="m76.97,78.08v.5l.8.05c.4,0,.6.08.7.25.14.4.19.83.15,1.25v7.48c.04.42-.01.85-.15,1.25-.09.16-.3.25-.7.25l-.8.05v.5c.87-.05,1.7-.05,2.47-.05s1.57.05,2.42.05v-.5l-.8-.05c-.4-.02-.6-.08-.7-.25-.14-.4-.19-.83-.15-1.25v-7.48c-.04-.42.01-.85.15-1.25.1-.16.3-.25.7-.25l.8-.05v-.5c-.87.05-1.6.05-2.42.05s-1.62-.05-2.47-.05Z"/><path class="cls-1" d="m92.02,78.12v.5l.73.05c.4.03.6.08.7.25.14.4.19.83.15,1.25v7.79h-.05l-7.95-9.85c-.31.05-.61.05-.9.05-.61,0-1.27-.05-2-.05v.5l.73.05c.4.03.6.08.7.25.14.4.19.83.15,1.25l.03,7.45c.04.42-.01.85-.15,1.25-.1.16-.3.25-.7.25l-.73.05v.5c.66-.05,1.27-.05,1.94-.05s1.27.05,2,.05v-.5l-.73-.05c-.4-.03-.6-.08-.7-.25-.14-.4-.19-.83-.15-1.25v-7.67l7.84,9.79,1.5.26c-.05-.2-.05-.42-.05-.62v-9.21c-.04-.42.01-.85.15-1.25.1-.16.3-.25.7-.25l.73-.05v-.5c-.73.05-1.4.05-2,.05s-1.27-.05-1.94-.05Z"/><path class="cls-1" d="m102.87,78.13h-2.42c-1.2,0-2.4-.05-3.61-.05.12.87.12,1.78.12,2.69h.5l.07-1.31c.03-.4.16-.55.66-.55h2.56c.05.57.07,1.14.07,1.7l.06,7.02c.04.42-.01.85-.15,1.25-.1.16-.3.25-.7.25l-.8.05v.5c.87-.05,1.7-.05,2.47-.05s1.57.05,2.42.05v-.5l-.8-.05c-.4-.02-.6-.08-.7-.25-.14-.4-.19-.83-.15-1.25v-6.96c0-.67.02-1.2.07-1.7h2.56c.49,0,.66.15.66.55l.07,1.31h.52c0-.9.03-1.83.12-2.69h-3.6Z"/><path class="cls-1" d="m121.12,85.12l-2.46-.05v.48c.48,0,.96.03,1.43.09.2.04.33.1.38.18.07.28.1.57.07.85v.85c.01.34-.01.67-.07,1.01-.35.17-.72.3-1.1.37-.44.09-.89.14-1.34.14-.9.02-1.78-.21-2.56-.66-.75-.45-1.36-1.11-1.76-1.89-.45-.86-.67-1.82-.66-2.79,0-.88.19-1.76.56-2.56.35-.76.93-1.4,1.65-1.82.78-.44,1.66-.66,2.56-.64.42,0,.83.03,1.24.1.45.1.89.24,1.32.41.26.12.49.29.67.51.05.1.09.21.1.32v1.23h.48c.07-.8.12-1.32.16-1.58.04-.26.1-.53.18-.78-.81-.22-1.53-.4-2.17-.53-.61-.13-1.22-.19-1.84-.2-1.07-.03-2.13.14-3.13.5-.6.25-1.16.6-1.65,1.02-1.29,1.08-2,2.69-1.94,4.37-.03,1.06.24,2.11.77,3.03.52.86,1.28,1.56,2.19,1.99,1.01.49,2.11.73,3.23.71.86,0,1.71-.09,2.56-.26.67-.14,1.32-.34,1.96-.58l.09-.07c-.06-.51-.09-1.02-.09-1.53,0-.52.03-1.04.09-1.55l.59-.35-.05-.38c-.5.03-.99.05-1.47.05Z"/><path class="cls-1" d="m123.39,78.89v-.08s-.04,0-.06,0l.06.09Z"/><path class="cls-1" d="m133.06,88.93c-.09-.09-.42-.49-.99-1.22l-1.99-2.61c-.49-.64-.8-1.05-.93-1.23.62-.12,1.21-.34,1.75-.66.43-.27.78-.64,1.02-1.08.23-.4.35-.85.36-1.31,0-.46-.13-.92-.38-1.31-.25-.39-.63-.69-1.07-.85-.71-.21-1.45-.3-2.19-.26h-5.26v.42c.36,0,.72.02,1.07.08.12.03.22.11.29.2.09.28.12.56.11.85v7.96c0,.26-.03.52-.12.76-.07.09-.17.16-.28.19-.37.07-.75.1-1.13.09v.5c1.2-.03,2.05-.05,2.56-.05.63,0,1.31.02,2.05.05v-.5c-.38.01-.75-.02-1.13-.09-.12-.03-.22-.1-.29-.2-.08-.28-.12-.56-.1-.85v-5.57c.04-1.45.06-2.21.06-2.28.03-.24.04-.51.04-.79.52-.16,1.05-.25,1.59-.25.69-.05,1.38.15,1.93.57.43.39.66.95.64,1.53.03.68-.24,1.33-.74,1.79-.61.49-1.39.73-2.17.67h-.62l-.08.24c.48.57,1.01,1.2,1.58,1.91.34.42.74.95,1.18,1.59.8,1.14,1.36,1.91,1.7,2.3.46-.03.84-.05,1.13-.05s.64.02,1.04.05v-.5c-.17.02-.35.02-.52,0-.05-.02-.1-.04-.14-.08Z"/><path class="cls-1" d="m145.43,80.83c-.28-.5-.64-.95-1.07-1.32-.5-.43-1.08-.76-1.7-.97-.76-.25-1.56-.38-2.36-.37-.85-.02-1.7.13-2.51.43-.73.29-1.4.72-1.96,1.27-.55.53-.98,1.17-1.24,1.89-.26.74-.38,1.51-.38,2.29l-.02.03c0,.76.13,1.52.38,2.23.23.71.62,1.37,1.13,1.92.5.53,1.12.94,1.81,1.19.74.27,1.52.41,2.3.4,1.68.05,3.3-.59,4.49-1.76,1.18-1.16,1.83-2.76,1.78-4.42,0-.52-.06-1.04-.18-1.55-.1-.44-.26-.86-.48-1.26Zm-1.42,5.95c-.28.7-.77,1.29-1.4,1.7-.66.42-1.42.63-2.2.61-.58.01-1.16-.09-1.7-.3-.52-.21-.98-.54-1.36-.95-.43-.46-.76-1-.99-1.59-.17-.43-.29-.88-.38-1.33-.1-.5-.15-1.01-.15-1.52h0c-.01-.83.15-1.65.48-2.4.29-.68.79-1.24,1.42-1.62.67-.38,1.43-.58,2.2-.56.55,0,1.09.08,1.61.26.86.28,1.59.87,2.05,1.65.23.36.42.76.55,1.17.23.75.34,1.52.33,2.3.01.87-.14,1.74-.46,2.56Z"/><path class="cls-1" d="m154.96,78.37v.5c.38,0,.75.02,1.13.09.12.03.22.11.29.2.08.28.12.56.1.85v4.51c0,.57-.02,1.14-.08,1.7-.03.36-.11.72-.25,1.06-.12.27-.29.5-.51.7-.3.25-.65.43-1.02.53-.51.15-1.04.22-1.57.21-.46,0-.92-.05-1.37-.16-.35-.08-.68-.22-.98-.43-.3-.22-.54-.51-.69-.85-.19-.73-.26-1.48-.21-2.22v-5.14c-.01-.26.03-.52.13-.76.07-.09.16-.16.27-.19.37-.07.75-.09,1.13-.09v-.5c-.74.03-1.48.05-2.22.05s-1.53-.02-2.39-.05v.5h.14c.38,0,.76.03,1.13.09.12.03.22.11.29.2.09.28.12.56.11.85v5.57c-.03.73.04,1.46.22,2.17.14.36.36.69.64.95.39.36.85.62,1.36.76,1.3.37,2.68.38,3.99.04.51-.13.98-.36,1.4-.68.45-.35.8-.82,1-1.36.22-.89.32-1.8.27-2.71v-2.63c0-1.39,0-2.13,0-2.23,0-.26.03-.52.12-.76.07-.09.17-.16.28-.19.37-.07.75-.1,1.13-.09v-.5c-.9.03-1.55.05-1.95.05-.4,0-1.03-.02-1.89-.05Z"/><path class="cls-1" d="m167.96,79.52c-.27-.39-.66-.69-1.12-.85-.64-.21-1.3-.3-1.97-.27h-.38l-1.24.04h-1.3c-.62,0-1.45-.02-2.51-.05v.5-.02c.39,0,.77.02,1.14.09.12.03.22.11.29.2.09.28.12.56.11.85v7.96c0,.26-.03.52-.12.76-.07.09-.17.16-.28.19-.37.07-.75.1-1.13.09v.5l2.46-.05c.45,0,1.17.02,2.14.05v-.5c-.38.01-.76-.02-1.13-.09-.12-.03-.22-.1-.29-.2-.08-.28-.12-.56-.11-.85v-6.04c0-1.17.02-2.04.07-2.61.52-.17,1.06-.26,1.6-.26.49-.01.98.08,1.42.28.37.18.67.48.85.85.2.38.3.8.29,1.23,0,.44-.1.88-.3,1.28-.19.37-.49.66-.85.85-.34.19-.73.29-1.12.29-.37-.01-.74-.07-1.1-.16l.16.58c.36.07.72.11,1.08.11.36,0,.73-.04,1.07-.14.48-.15.93-.38,1.33-.68.41-.3.75-.7.97-1.16.22-.43.33-.9.33-1.38,0-.49-.13-.97-.4-1.37Z"/><path class="cls-1" d="m77.44,61.42l-2.02.06-2.44.04h-1.95l-2.65-.08c.05.47.08,1.32.08,2.56h.48l.05-.77c0-.29.06-.58.15-.85.06-.07.15-.1.24-.1.53-.06,1.06-.08,1.59-.08h1.15l.04,1.3v7.42c.01.26-.03.51-.12.75-.07.09-.16.15-.27.18-.37.07-.74.09-1.12.09v.49l2.41-.06c.46,0,1.15.02,2.08.06v-.49c-.37,0-.75-.02-1.12-.09-.12-.03-.22-.1-.29-.2-.09-.28-.12-.56-.11-.85v-6.58c0-.84.03-1.51.08-2h2c.44.04.7.06.78.06.05,0,.09.03.13.06.03.04.06.08.07.13.02.06.09.32.09.77l.06.74h.49c.02-1.14.07-1.99.13-2.56Z"/><path class="cls-1" d="m81.29,71.62c-.09-.28-.12-.56-.11-.85v-3.8c1.32-.03,2.36-.05,3.11-.05s1.85.02,3.29.05v3.95c.02.26-.03.51-.12.75-.07.09-.16.15-.27.18-.37.07-.74.09-1.12.09v.49c.76-.03,1.46-.05,2.1-.05s1.45.02,2.45.05v-.49c-.37,0-.74-.02-1.11-.09-.12-.03-.22-.1-.29-.2-.08-.28-.12-.56-.1-.85v-7.83c-.01-.26.03-.51.13-.75.07-.09.16-.15.27-.18.37-.07.74-.09,1.11-.09v-.49l-2.26.05c-.39,0-1.15-.02-2.28-.05v.49c.37,0,.75.02,1.12.09.11.03.21.11.28.2.09.28.12.56.11.85v3.14c-.65.03-1.55.05-2.69.05-1.46,0-2.7-.02-3.72-.05v-3.27c0-.26.03-.51.12-.75.07-.09.16-.15.27-.18.37-.07.74-.09,1.12-.09v-.49l-2.18.05-2.37-.05v.49c.37,0,.73.02,1.09.08.12.03.22.1.29.2.09.28.12.56.11.85v7.83c0,.26-.03.51-.12.75-.07.09-.16.15-.27.18-.37.07-.74.09-1.11.09v.49c.86-.03,1.67-.05,2.4-.05s1.46.02,2.16.05v-.49c-.37,0-.75-.02-1.12-.09-.12-.03-.22-.1-.29-.2Z"/><path class="cls-1" d="m78.14,61.93h0s-.02,0-.03,0h.03Z"/><path class="cls-1" d="m94.48,62.18l.92-.05h.85c.57,0,1.14.04,1.7.11.32.04.64.12.94.24.08.48.11.96.1,1.44h.49c.09-1.03.14-1.57.14-1.61.04-.26.1-.52.17-.77-.48-.06-.96-.09-1.45-.09h-4.77l-2.21-.04v.49c.37,0,.75.02,1.12.09.12.03.22.1.29.2.09.28.13.56.11.85v6.01c0,.49-.02,1.08-.05,1.76,0,.29-.03.58-.11.85-.03.07-.09.12-.15.14-.35.1-.71.14-1.07.12v.49l.12-.09,2.03-.05,4.62.05c.54,0,1.08-.03,1.62-.1.02-.86.08-1.71.2-2.56h-.52c-.03.23-.11.58-.22,1.04-.05.22-.11.44-.19.65-.25.1-.51.17-.78.21-.46.05-.93.07-1.4.06-.92,0-1.75-.03-2.5-.09v-4.48h1.47c.57-.02,1.14.01,1.7.09.14.02.26.09.34.2.08.23.12.47.1.72v.53h.55v-3.56h-.46l-.04.55c0,.22-.05.43-.13.63-.09.08-.2.13-.32.13-.52.06-1.04.09-1.57.09-.53,0-1.1-.02-1.7-.05v-2.61c.03-.5.04-1.03.04-1.6Z"/></svg>