<svg xmlns="http://www.w3.org/2000/svg" viewBox="0 0 520 640">
  <defs>
    <linearGradient id="bg" x1="0" x2="1" y1="0" y2="1">
      <stop offset="0" stop-color="#fb7185"/>
      <stop offset="1" stop-color="#831843"/>
    </linearGradient>
    <linearGradient id="shirt" x1="0" x2="1" y1="0" y2="1">
      <stop offset="0" stop-color="#831843"/>
      <stop offset="1" stop-color="#f472b6"/>
    </linearGradient>
  </defs>
  <rect width="520" height="640" fill="url(#bg)"/>
  <circle cx="102" cy="108" r="126" fill="#ffffff" opacity=".12"/>
  <path d="M70 626c26-150 108-226 190-226s164 76 190 226H70Z" fill="url(#shirt)"/>
  <circle cx="260" cy="270" r="122" fill="#2a1427"/>
  <circle cx="260" cy="262" r="92" fill="#efb18f"/>
  <path d="M151 268c12-104 73-160 153-147 59 10 94 55 100 126-77-36-162-31-253 21Z" fill="#26101d"/>
  <path d="M203 410c38 32 76 32 114 0v78H203v-78Z" fill="#d89d7d"/>
  <path d="M188 526h144l32 114H156l32-114Z" fill="#fff1f2" opacity=".9"/>
</svg>
