<svg xmlns="http://www.w3.org/2000/svg" viewBox="0 0 520 640">
  <defs>
    <linearGradient id="bg" x1="0" x2="1" y1="0" y2="1">
      <stop offset="0" stop-color="#f59e0b"/>
      <stop offset="1" stop-color="#7c2d12"/>
    </linearGradient>
    <linearGradient id="shirt" x1="0" x2="1" y1="0" y2="1">
      <stop offset="0" stop-color="#111827"/>
      <stop offset="1" stop-color="#ea580c"/>
    </linearGradient>
  </defs>
  <rect width="520" height="640" fill="url(#bg)"/>
  <path d="M-20 420c155-98 337-105 560-26v246H-20V420Z" fill="#ffffff" opacity=".09"/>
  <path d="M72 626c25-147 106-224 188-224s163 77 188 224H72Z" fill="url(#shirt)"/>
  <circle cx="260" cy="254" r="100" fill="#e4a17d"/>
  <path d="M164 242c3-78 50-136 118-138 74-2 119 50 121 134-70-38-155-38-239 4Z" fill="#1f130f"/>
  <path d="M202 404c39 35 77 35 116 0v80H202v-80Z" fill="#c98768"/>
  <path d="M170 318c42 62 138 62 180 0 3 70-35 118-90 118s-93-48-90-118Z" fill="#e4a17d"/>
  <path d="M188 520h144l30 120H158l30-120Z" fill="#fffbeb" opacity=".9"/>
</svg>
