<svg xmlns="http://www.w3.org/2000/svg" viewBox="0 0 520 640">
  <defs>
    <linearGradient id="bg" x1="0" x2="1" y1="0" y2="1">
      <stop offset="0" stop-color="#34d399"/>
      <stop offset="1" stop-color="#134e4a"/>
    </linearGradient>
    <linearGradient id="shirt" x1="0" x2="1" y1="0" y2="1">
      <stop offset="0" stop-color="#064e3b"/>
      <stop offset="1" stop-color="#14b8a6"/>
    </linearGradient>
  </defs>
  <rect width="520" height="640" fill="url(#bg)"/>
  <circle cx="402" cy="98" r="130" fill="#ffffff" opacity=".12"/>
  <circle cx="260" cy="270" r="120" fill="#16251f"/>
  <circle cx="260" cy="260" r="92" fill="#f0b792"/>
  <path d="M151 268c8-108 68-164 149-151 58 9 94 52 102 125-70-35-156-30-251 26Z" fill="#172018"/>
  <path d="M202 408c39 34 77 34 116 0v80H202v-80Z" fill="#dca27d"/>
  <path d="M72 626c25-147 106-224 188-224s163 77 188 224H72Z" fill="url(#shirt)"/>
  <path d="M186 526h148l30 114H156l30-114Z" fill="#ecfdf5" opacity=".9"/>
</svg>
